<svg height="257" preserveAspectRatio="xMidYMid" viewBox="0 0 256 257" width="256" xmlns="http://www.w3.org/2000/svg"><path d="m128.418361 80.5257478c-26.510703 0-48.8848393 21.4753852-48.8848393 48.7283082-.1181101 12.956584 4.994306 25.416745 14.1877197 34.578811 9.1934136 9.162066 21.6962066 14.25705 34.6971196 14.139343 26.510704 0 48.874652-21.475385 48.874652-48.718154 0-27.252923-22.363948-48.7283082-48.874652-48.7283082zm-76.2208179 47.8956922c0-41.2855383 33.9687486-75.1384616 75.3955429-75.1384616 41.416606 0 75.385354 33.8529233 75.385354 75.1384616 0 2.477539 0 5.787693-.825275 8.265231-.835464 7.422462 4.97203 13.2 12.430076 13.2 12.430076 0 14.080627-15.677538 14.080627-21.465231 0-55.3283076-45.573549-100.7464619-101.070782-100.7464619-55.5176099 0-101.0707818 45.4181543-101.0707818 100.7464619 0 55.338462 45.5531719 100.746463 101.0707818 100.746463 29.821994 0 56.332697-12.387693 74.560079-33.030462l20.703208 17.342769c-22.363948 26.430462-57.157972 42.951388-94.4482 42.951388-34.0968271.105071-66.8269787-13.350369-90.9324108-37.383138s-37.59392462-56.656653-37.47513795-90.637173c0-70.1833855 57.15876065-127.9790783 128.41773675-127.9790783 70.413324 0 127.581485 57.8058466 127.581485 127.9993853 0 28.075385-13.255351 51.205847-40.59133 51.205847-11.6048 0-19.052657-5.787692-23.199412-11.565231-13.255352 21.475385-37.290228 35.508-64.626207 35.508-20.0169.067738-39.2335688-7.826859-53.3877367-21.932764-14.1541678-14.105906-22.0757755-33.25705-22.0078058-53.205698zm76.2106299-22.297846c12.430076 0 22.374137 9.910154 22.374137 22.297846 0 12.387693-9.944061 22.298036-22.363949 22.298036-5.941467.024228-11.646663-2.31716-15.84795-6.504122-4.201288-4.186963-6.550688-9.872705-6.526376-15.793914 0-12.387692 9.94425-22.297846 22.374326-22.297846z" fill="#c02428"/></svg>